<?xml version="1.0" standalone="no"?>
<!DOCTYPE svg PUBLIC "-//W3C//DTD SVG 20010904//EN"
 "http://www.w3.org/TR/2001/REC-SVG-20010904/DTD/svg10.dtd">
<svg version="1.0" xmlns="http://www.w3.org/2000/svg"
 width="700.000000pt" height="700.000000pt" viewBox="0 0 700.000000 700.000000"
 preserveAspectRatio="xMidYMid meet">
<metadata>
Created by potrace 1.11, written by Peter Selinger 2001-2013
</metadata>
<g transform="translate(0.000000,700.000000) scale(0.100000,-0.100000)"
fill="#000000" stroke="none">
<path d="M830 6228 c-150 -26 -285 -159 -320 -313 -14 -65 -14 -3946 1 -4000
33 -123 133 -239 245 -285 l59 -25 1000 -5 1000 -5 1 -218 c1 -188 -1 -222
-16 -250 -30 -55 -66 -69 -190 -72 -121 -3 -146 -12 -180 -68 -37 -61 -21
-137 37 -177 l37 -25 988 -1 c945 -1 991 0 1027 18 66 32 90 121 51 185 -34
56 -60 66 -174 68 -118 2 -153 13 -187 58 -23 31 -24 37 -27 260 l-3 227 973
1 c535 0 984 2 998 5 54 9 126 37 169 66 46 30 111 103 137 153 46 88 44 5 44
2086 0 1293 -3 1974 -10 2004 -35 157 -169 286 -325 314 -62 11 -5273 10
-5335 -1z m5316 -276 c17 -7 42 -28 55 -45 l24 -32 0 -1455 0 -1455 -2725 0
-2725 0 -2 1435 c-2 1258 0 1440 13 1477 15 41 47 70 91 82 12 3 1196 6 2630
6 2116 0 2614 -3 2639 -13z m82 -3617 c-1 -266 -4 -361 -14 -380 -16 -31 -44
-60 -69 -70 -30 -13 -5231 -15 -5278 -2 -23 6 -47 23 -65 46 l-27 36 -1 363
-1 362 2728 0 2727 0 0 -355z m-2315 -987 c2 -139 6 -262 8 -273 4 -19 -4 -19
-421 -19 -417 0 -425 0 -421 19 2 11 6 134 8 273 l5 252 408 0 409 0 4 -252z"/>
<path d="M2102 5549 c-55 -11 -102 -68 -102 -123 0 -45 29 -101 63 -121 26
-16 54 -20 159 -22 152 -2 183 -13 215 -76 12 -23 29 -82 37 -132 9 -49 18
-103 21 -120 3 -16 8 -45 11 -64 3 -18 8 -43 10 -55 7 -35 23 -129 29 -166 3
-19 8 -46 10 -60 12 -59 16 -82 40 -215 13 -77 31 -178 40 -225 8 -47 22 -123
30 -170 9 -47 17 -97 20 -110 7 -36 37 -72 73 -91 29 -15 111 -17 812 -16
l780 0 39 24 c28 17 44 35 55 66 9 23 77 256 151 517 100 349 134 483 129 505
-9 42 -30 73 -67 95 -31 19 -58 20 -953 20 l-920 0 -38 137 c-20 75 -47 156
-58 179 -44 94 -146 181 -248 211 -58 17 -277 25 -338 12z m2305 -823 c-2 -6
-46 -157 -97 -336 -50 -179 -94 -327 -97 -330 -9 -10 -1265 -5 -1273 5 -5 6
-11 39 -15 75 -4 36 -8 67 -10 70 -2 3 -6 30 -10 60 -3 30 -12 96 -20 145 -7
50 -16 115 -20 145 -3 30 -8 62 -10 70 -2 8 -6 36 -9 61 l-5 46 785 0 c561 0
784 -3 781 -11z"/>
<path d="M2759 3632 c-51 -26 -74 -65 -73 -123 1 -73 43 -121 119 -135 26 -5
87 17 109 38 59 59 48 166 -21 209 -44 27 -93 31 -134 11z"/>
<path d="M4136 3635 c-43 -15 -84 -58 -87 -90 -9 -101 45 -168 136 -168 68 0
118 45 129 117 16 99 -80 176 -178 141z"/>
<path d="M3441 2403 c-51 -26 -75 -65 -75 -117 3 -136 168 -191 243 -80 29 41
32 111 7 149 -38 57 -116 79 -175 48z"/>
</g>
</svg>
